<?xml version="1.0" standalone="no"?>
<!DOCTYPE svg PUBLIC "-//W3C//DTD SVG 20010904//EN"
 "http://www.w3.org/TR/2001/REC-SVG-20010904/DTD/svg10.dtd">
<svg version="1.0" xmlns="http://www.w3.org/2000/svg"
 width="260.000000pt" height="260.000000pt" viewBox="0 0 260.000000 260.000000"
 preserveAspectRatio="xMidYMid meet">
<metadata>
Created by potrace 1.14, written by Peter Selinger 2001-2017
</metadata>
<g transform="translate(0.000000,260.000000) scale(0.100000,-0.100000)"
fill="#000000" stroke="none">
<path d="M1266 2592 c-2 -4 -5 -122 -5 -262 -1 -305 -9 -467 -23 -497 -15 -30
-46 -30 -54 1 -8 35 -79 99 -122 111 l-37 11 -11 79 c-17 120 -54 195 -96 195
-31 0 -58 36 -58 78 0 30 -6 42 -34 65 -19 15 -37 27 -39 27 -14 0 -15 -36 -2
-67 8 -19 15 -59 15 -87 0 -52 9 -71 58 -123 12 -13 22 -28 22 -33 0 -5 6 -13
14 -17 9 -5 15 -32 18 -79 3 -64 7 -74 42 -117 21 -26 45 -47 53 -47 16 0 43
-58 43 -93 0 -13 -9 -32 -19 -41 -22 -20 -18 -21 -86 39 -22 19 -66 54 -97 77
-33 24 -58 50 -58 60 0 10 -3 18 -7 19 -32 3 -49 14 -97 59 -30 29 -65 59 -78
68 -13 9 -25 19 -28 22 -3 3 -19 16 -36 28 -17 12 -37 35 -44 52 -9 21 -22 32
-48 39 -19 6 -46 20 -59 33 -22 20 -25 21 -40 5 -13 -13 -14 -19 -4 -31 7 -9
16 -14 19 -13 8 2 122 -108 122 -117 0 -4 35 -41 77 -82 280 -271 310 -304
269 -304 -7 0 -16 -9 -19 -20 -4 -17 -15 -20 -64 -22 -124 -5 -137 1 -186 75
-9 15 -33 34 -53 42 -32 13 -39 13 -82 -4 -30 -12 -55 -16 -68 -11 -21 8 -60
59 -56 73 1 4 -3 7 -8 7 -6 0 -10 -4 -10 -10 0 -5 -24 -10 -54 -10 -47 0 -54
-3 -59 -22 -4 -12 -5 -22 -4 -23 1 0 16 -8 34 -17 17 -10 41 -18 52 -18 12 0
42 -22 70 -51 l50 -51 54 6 c56 7 107 -7 107 -29 0 -6 19 -29 43 -50 40 -38
45 -39 107 -38 68 2 86 -6 101 -44 5 -13 16 -23 24 -23 10 0 15 -7 13 -17 -4
-22 -72 -30 -398 -49 -63 -3 -120 -10 -125 -15 -6 -4 -26 -7 -45 -7 -19 1 -80
-2 -135 -5 -55 -3 -106 -6 -112 -7 -7 0 -13 -9 -13 -20 0 -14 7 -20 23 -21 12
-1 54 -3 92 -5 39 -3 194 -7 345 -10 151 -2 281 -7 288 -9 16 -6 16 -55 -1
-55 -18 0 -49 -37 -70 -83 -21 -46 -43 -55 -130 -51 -75 3 -65 9 -147 -88 -30
-35 -36 -38 -86 -38 -30 0 -58 -5 -64 -12 -5 -7 -19 -25 -31 -41 -11 -15 -27
-27 -35 -27 -8 0 -14 -6 -14 -14 0 -32 124 -20 145 15 4 5 29 9 56 9 60 0 113
21 154 60 27 25 38 28 110 32 74 3 84 6 123 36 23 19 42 40 42 47 0 19 34 28
71 20 28 -6 31 -10 25 -37 -6 -31 -22 -51 -118 -149 -32 -33 -58 -63 -58 -67
0 -5 -25 -31 -55 -57 -30 -27 -55 -53 -55 -58 0 -5 -22 -30 -50 -57 -27 -27
-50 -52 -50 -57 -1 -4 -34 -44 -75 -88 -45 -48 -71 -83 -65 -89 12 -12 57 17
93 60 16 19 35 34 43 34 8 0 14 4 14 10 0 5 17 21 38 34 20 13 72 57 114 98
43 40 107 100 144 133 36 33 82 75 102 93 40 37 52 40 52 13 0 -11 5 -21 11
-23 8 -3 6 -15 -4 -40 -16 -38 -9 -100 13 -113 14 -9 12 -38 -4 -69 -17 -34
-92 -102 -128 -117 -32 -13 -33 -17 -13 -43 8 -11 15 -30 15 -42 0 -12 6 -34
14 -50 17 -31 11 -46 -28 -83 -26 -24 -35 -61 -16 -61 5 0 17 11 26 25 9 13
26 27 37 31 49 15 101 92 87 129 -4 11 -5 27 -2 35 6 19 72 78 95 86 9 3 17
11 17 18 0 7 9 25 21 40 21 27 22 45 4 131 -5 25 -1 35 28 63 20 19 46 34 63
35 l29 2 7 -80 c24 -291 30 -370 35 -455 3 -52 9 -99 14 -104 5 -6 9 -34 9
-62 0 -63 16 -80 24 -27 8 58 17 150 21 228 2 39 8 115 14 170 6 55 11 137 11
181 0 104 17 117 58 44 27 -50 85 -90 131 -90 30 0 51 -39 52 -95 2 -82 10
-97 64 -126 44 -22 51 -30 56 -64 4 -24 15 -45 28 -53 11 -8 21 -19 21 -24 0
-10 55 -68 64 -68 8 0 8 64 0 85 -4 9 -17 21 -30 25 -20 8 -23 14 -18 42 3 18
10 46 14 61 8 22 6 29 -8 34 -9 4 -23 15 -30 25 -7 10 -19 18 -27 18 -22 0
-35 34 -35 92 -1 80 -33 135 -103 177 -56 33 -57 34 -57 81 0 34 5 52 20 65
19 17 21 17 53 0 17 -9 41 -31 52 -49 11 -17 35 -36 53 -41 35 -12 122 -87
140 -122 7 -12 25 -24 41 -28 16 -3 37 -15 47 -27 11 -11 35 -31 54 -43 19
-13 46 -32 59 -44 13 -11 30 -21 37 -21 7 0 23 -13 36 -30 12 -16 30 -30 40
-30 9 0 22 -9 28 -20 12 -23 28 -26 36 -6 3 8 -25 44 -70 89 -42 42 -76 81
-76 86 0 5 -15 19 -33 30 -18 11 -39 32 -47 46 -7 14 -19 25 -26 25 -7 0 -17
6 -21 14 -21 36 -92 111 -135 143 -27 19 -48 40 -48 46 1 21 140 77 193 77 9
0 44 -25 77 -55 68 -63 88 -70 151 -56 50 11 90 4 133 -24 26 -17 26 -17 26 8
0 26 -59 87 -84 87 -8 0 -19 7 -26 15 -8 9 -30 15 -57 15 -55 0 -97 21 -120
61 -29 50 -85 69 -193 66 -81 -2 -93 0 -106 18 -14 19 -11 70 5 87 6 7 89 16
205 23 37 3 114 11 170 19 55 8 148 18 206 21 148 9 212 22 208 43 -3 14 -18
18 -77 20 -47 2 -78 -1 -88 -9 -10 -9 -17 -9 -21 -2 -5 6 -107 13 -277 17
-213 5 -273 10 -285 21 -14 13 -18 13 -32 -2 -24 -23 -50 -9 -46 24 3 26 6 27
43 25 37 -3 75 15 133 64 2 1 8 22 13 46 14 62 33 78 90 78 94 0 144 35 162
111 7 28 30 39 80 39 36 0 98 46 90 66 -4 10 -17 14 -37 13 -17 -2 -36 0 -43
4 -6 4 -13 1 -16 -7 -3 -8 -29 -16 -64 -20 -54 -7 -60 -10 -96 -56 -36 -45
-76 -68 -97 -55 -11 7 -110 -14 -110 -24 0 -4 -14 -15 -30 -25 -25 -14 -34
-15 -45 -6 -8 7 -13 16 -10 20 3 4 -2 13 -10 20 -23 19 -18 57 10 76 14 9 25
22 25 28 0 7 15 26 33 42 17 16 48 50 67 74 19 24 50 59 68 79 17 19 32 38 32
42 0 3 15 17 33 29 18 12 41 40 52 62 11 22 30 45 42 51 24 11 40 48 28 66
-13 21 -37 10 -81 -36 -98 -106 -189 -193 -201 -193 -7 0 -13 -6 -13 -12 0
-17 -110 -119 -121 -112 -5 3 -9 0 -9 -5 0 -6 -43 -54 -95 -107 -63 -64 -100
-94 -110 -90 -22 8 -18 30 12 66 30 36 36 104 14 155 -12 27 -12 36 4 68 9 20
24 39 33 42 10 2 32 26 50 53 35 52 43 110 17 132 -23 19 -18 42 15 73 32 30
48 73 34 87 -5 4 -19 11 -31 14 -18 6 -23 1 -32 -27 -7 -19 -22 -39 -35 -45
-25 -11 -56 -63 -56 -93 0 -10 5 -30 12 -44 10 -22 8 -28 -10 -46 -12 -11 -22
-26 -22 -33 0 -7 -11 -19 -25 -26 -26 -14 -84 -97 -96 -137 -4 -13 -2 -23 6
-27 24 -9 23 -53 -2 -80 -13 -15 -28 -24 -34 -21 -5 4 -9 -1 -9 -9 0 -18 -16
-21 -26 -5 -8 13 -49 450 -59 624 -8 137 -20 195 -40 195 -8 0 -16 -3 -19 -8z
m176 -884 c21 -6 47 -22 59 -34 13 -13 28 -24 36 -24 24 0 124 -111 149 -167
35 -75 37 -222 4 -298 -5 -11 -11 -31 -14 -45 -3 -14 -19 -41 -36 -60 -16 -18
-30 -39 -30 -47 0 -7 -11 -20 -25 -29 -14 -9 -25 -22 -25 -29 0 -8 -9 -17 -21
-20 -11 -4 -42 -20 -69 -37 -44 -27 -59 -31 -154 -35 -114 -6 -183 6 -212 38
-9 10 -30 21 -48 25 -51 11 -126 98 -165 192 -32 78 -33 86 -28 174 3 51 11
108 17 126 13 36 40 44 40 11 0 -11 6 -27 14 -35 10 -10 13 -27 10 -54 -4 -31
-1 -40 10 -40 8 0 18 5 21 10 8 13 42 13 47 -1 2 -6 25 -13 50 -16 36 -4 54
-1 81 16 19 11 48 21 66 21 43 0 44 36 1 51 -39 14 -41 46 -3 51 38 4 41 32 6
47 -33 13 -132 13 -150 -1 -17 -14 -88 -6 -88 10 0 8 -8 20 -19 27 -23 17 -14
45 14 45 15 0 26 11 36 35 8 19 19 35 25 35 6 0 24 11 41 25 18 15 42 25 61
25 18 0 39 5 47 10 20 13 204 11 252 -2z"/>
<path d="M1368 1505 c-6 -14 -17 -25 -24 -25 -19 0 -25 -31 -24 -132 1 -135 2
-128 -28 -128 -15 0 -37 -3 -49 -6 -19 -5 -23 -2 -23 15 0 30 -26 26 -42 -6
-7 -15 -26 -34 -43 -43 -35 -20 -39 -44 -7 -48 23 -3 31 -35 12 -47 -22 -13
-10 -35 20 -35 16 0 33 -6 37 -14 4 -8 17 -15 28 -18 14 -2 20 -11 20 -28 0
-24 3 -25 68 -28 l69 -3 -3 29 c-3 22 4 36 33 60 19 18 40 32 46 32 11 0 22
23 22 46 0 9 -4 13 -8 10 -15 -9 -92 16 -92 30 0 20 20 28 62 25 46 -2 52 18
11 37 -28 12 -65 62 -78 101 -8 27 28 38 60 17 13 -9 30 -16 36 -16 7 0 21 -7
31 -17 15 -13 23 -14 44 -5 13 7 34 12 46 12 15 0 19 5 15 20 -6 22 17 45 34
34 9 -5 10 3 6 34 -4 24 -3 43 3 47 16 10 12 28 -5 21 -8 -3 -25 -1 -38 3 -39
16 -62 24 -72 26 -5 0 -23 6 -38 13 -16 7 -48 12 -73 12 -38 0 -46 -4 -56 -25z"/>
</g>
</svg>
